<?xml version="1.0" encoding="UTF-8" standalone="no"?>
<!-- Generator: Adobe Illustrator 16.0.0, SVG Export Plug-In . SVG Version: 6.00 Build 0)  -->

<svg
   xmlns:dc="http://purl.org/dc/elements/1.1/"
   xmlns:cc="http://creativecommons.org/ns#"
   xmlns:rdf="http://www.w3.org/1999/02/22-rdf-syntax-ns#"
   xmlns:svg="http://www.w3.org/2000/svg"
   xmlns="http://www.w3.org/2000/svg"
   xmlns:sodipodi="http://sodipodi.sourceforge.net/DTD/sodipodi-0.dtd"
   xmlns:inkscape="http://www.inkscape.org/namespaces/inkscape"
   version="1.1"
   id="Capa_1"
   x="0px"
   y="0px"
   width="612.00049"
   height="356.70062"
   viewBox="0 0 612.00049 356.70062"
   xml:space="preserve"
   sodipodi:docname="arrow-up.svg"
   inkscape:version="0.92.4 (5da689c313, 2019-01-14)"><metadata
   id="metadata44"><rdf:RDF><cc:Work
       rdf:about=""><dc:format>image/svg+xml</dc:format><dc:type
         rdf:resource="http://purl.org/dc/dcmitype/StillImage" /></cc:Work></rdf:RDF></metadata><defs
   id="defs42" /><sodipodi:namedview
   pagecolor="#ffffff"
   bordercolor="#666666"
   borderopacity="1"
   objecttolerance="10"
   gridtolerance="10"
   guidetolerance="10"
   inkscape:pageopacity="0"
   inkscape:pageshadow="2"
   inkscape:window-width="640"
   inkscape:window-height="480"
   id="namedview40"
   showgrid="false"
   inkscape:zoom="0.38562092"
   inkscape:cx="306.00025"
   inkscape:cy="178.35038"
   inkscape:window-x="0"
   inkscape:window-y="0"
   inkscape:window-maximized="0"
   inkscape:current-layer="Capa_1" />
<g
   id="g7"
   transform="translate(2.5e-4,-127.64976)">
	<g
   id="_x39__30_">
		<g
   id="g4">
			<path
   d="M 604.501,440.509 325.398,134.956 c -5.331,-5.357 -12.423,-7.627 -19.386,-7.27 -6.989,-0.357 -14.056,1.913 -19.387,7.27 L 7.499,440.509 c -9.999,10.024 -9.999,26.298 0,36.323 9.999,10.025 26.223,10.024 36.222,0 L 306.014,189.668 568.28,476.832 c 9.999,10.024 26.222,10.024 36.221,0 9.999,-10.023 9.999,-26.298 0,-36.323 z"
   id="path2"
   inkscape:connector-curvature="0" />
		</g>
	</g>
</g>
<g
   id="g9"
   transform="translate(2.5e-4,-127.64976)">
</g>
<g
   id="g11"
   transform="translate(2.5e-4,-127.64976)">
</g>
<g
   id="g13"
   transform="translate(2.5e-4,-127.64976)">
</g>
<g
   id="g15"
   transform="translate(2.5e-4,-127.64976)">
</g>
<g
   id="g17"
   transform="translate(2.5e-4,-127.64976)">
</g>
<g
   id="g19"
   transform="translate(2.5e-4,-127.64976)">
</g>
<g
   id="g21"
   transform="translate(2.5e-4,-127.64976)">
</g>
<g
   id="g23"
   transform="translate(2.5e-4,-127.64976)">
</g>
<g
   id="g25"
   transform="translate(2.5e-4,-127.64976)">
</g>
<g
   id="g27"
   transform="translate(2.5e-4,-127.64976)">
</g>
<g
   id="g29"
   transform="translate(2.5e-4,-127.64976)">
</g>
<g
   id="g31"
   transform="translate(2.5e-4,-127.64976)">
</g>
<g
   id="g33"
   transform="translate(2.5e-4,-127.64976)">
</g>
<g
   id="g35"
   transform="translate(2.5e-4,-127.64976)">
</g>
<g
   id="g37"
   transform="translate(2.5e-4,-127.64976)">
</g>
</svg>